{"title":"Grown Ups 2 2013 Cam READNFO x264-Pioneer222","uid":8725413,"size":1213896308,"categoryP":"video","categoryS":"movies","magnet":"?xt=urn:btih:f2e05d5644480e2ef835f873819444073acdf044&amp;dn=Grown+Ups+2+2013+Cam+READNFO+x264-Pioneer222&amp;tr=udp%3A%2F%2Ftracker.openbittorrent.com%3A80&amp;tr=udp%3A%2F%2Fopen.demonii.com%3A1337&amp;tr=udp%3A%2F%2Ftracker.coppersurfer.tk%3A6969&amp;tr=udp%3A%2F%2Fexodus.desync.com%3A6969","seeders":4,"leechers":0,"uploader":".BONE.","files":-1,"time":1374508185,"description":"[img]http://www.ultraimg.com/images/qH5Q1.jpg[/img]\n\nGeneral\n\nFormat : MPEG-4\nFormat profile : Base Media\nCodec ID : isom\nFile size : 1.13 GiB\nDuration : 1h 0mn\nOverall bit rate : 2 692 Kbps\nEncoded date : UTC 2012-10-04 10:11:44\nTagged date : UTC 2012-10-04 10:11:44\n\nVideo\nID : 2\nFormat : AVC\nFormat/Info : Advanced Video Codec\nFormat profile : &lt;a class=&quot;__cf_email__&quot; href=&quot;/cdn-cgi/l/email-protection&quot; data-cfemail=&quot;a6e4c7d5c3cacfc8c3e6ea958896&quot;&gt;[email&amp;#160;protected]&lt;/a&gt;&lt;script cf-hash='f9e31' type=&quot;text/javascript&quot;&gt;\n/* &lt;![CDATA[ */!function(){try{var t=&quot;currentScript&quot;in document?document.currentScript:function(){for(var t=document.getElementsByTagName(&quot;script&quot;),e=t.length;e--;)if(t[e].getAttribute(&quot;cf-hash&quot;))return t[e]}();if(t&amp;&amp;t.previousSibling){var e,r,n,i,c=t.previousSibling,a=c.getAttribute(&quot;data-cfemail&quot;);if(a){for(e=&quot;&quot;,r=parseInt(a.substr(0,2),16),n=2;a.length-n;n+=2)i=parseInt(a.substr(n,2),16)^r,e+=String.fromCharCode(i);e=document.createTextNode(e),c.parentNode.replaceChild(e,c)}}}catch(u){}}();/* ]]&gt; */&lt;/script&gt;\nFormat settings, CABAC : No\nFormat settings, ReFrames : 1 frame\nFormat settings, GOP : M=1, N=25\nCodec ID : avc1\nCodec ID/Info : Advanced Video Coding\nDuration : 1h 0mn\nBit rate : 2 590 Kbps\nWidth : 1 280 pixels\nHeight : 720 pixels\nDisplay aspect ratio : 16:9\nFrame rate mode : Constant\nFrame rate : 29.970 fps\nOriginal frame rate : 29.000 fps\nColor space : YUV\nChroma subsampling : 4:2:0\nBit depth : 8 bits\nScan type : Progressive\nBits/(Pixel*Frame) : 0.094\nStream size : 1.09 GiB (96%)\nLanguage : English\n\nAudio\nID : 1\nFormat : AAC\nFormat/Info : Advanced Audio Codec\nFormat profile : LC\nCodec ID : 40\nDuration : 1h 0mn\nBit rate mode : Constant\nBit rate : 98.0 Kbps\nChannel(s) : 2 channels\nChannel positions : Front: L R\nSampling rate : 44.1 KHz\nCompression mode : Lossy\nStream size : 42.2 MiB (4%)\nLanguage : English","torrent":{"xt":"urn:btih:f2e05d5644480e2ef835f873819444073acdf044","amp;dn":"Grown+Ups+2+2013+Cam+READNFO+x264-Pioneer222","amp;tr":["udp%3A%2F%2Ftracker.openbittorrent.com%3A80","udp%3A%2F%2Fopen.demonii.com%3A1337","udp%3A%2F%2Ftracker.coppersurfer.tk%3A6969","udp%3A%2F%2Fexodus.desync.com%3A6969"],"infoHash":"f2e05d5644480e2ef835f873819444073acdf044","infoHashBuffer":{"type":"Buffer","data":[242,224,93,86,68,72,14,46,248,53,248,115,129,148,68,7,58,205,240,68]},"announce":[],"urlList":[]}}